<svg xmlns="http://www.w3.org/2000/svg" width="16" height="16" viewBox="0 0 16 16">
    <path fill="#555D74" fill-rule="evenodd" d="M11.522 14.993c-.862-.059-1.724-.312-2.8-.823A14.985 14.985 0 0 1 3.8 10.315c-1.096-1.31-1.897-2.648-2.38-3.977C1.176 5.674.94 4.878 1.012 4a2.107 2.107 0 0 1 .683-1.458l1.07-1.07c.626-.627 1.485-.63 2.136-.007.2.186.396.387.586.582.095.097.19.195.288.293l.846.846c.649.676.649 1.508.007 2.178-.187.188-.368.363-.55.539l-.46.45c.183.414.453.828.862 1.328.856 1.04 1.684 1.792 2.604 2.362.135.094.277.165.427.24l.122.061 1.003-1.002c.31-.31.68-.473 1.071-.473.391 0 .762.164 1.072.473l1.735 1.735c.647.647.647 1.517 0 2.164-.114.114-.229.225-.342.336-.225.22-.438.43-.643.648-.448.512-1.053.775-1.795.775-.07 0-.14-.003-.213-.007z"/>
</svg>
