<svg xmlns="http://www.w3.org/2000/svg" width="64" height="45" viewBox="0 0 64 45">
    <g fill="none" fill-rule="evenodd" transform="translate(1)">
        <path fill="#0D9F9B" fill-rule="nonzero" d="M6 8h51v23H6z"/>
        <path fill="#7FEAE7" fill-rule="nonzero" d="M4 6h3v28H4zM55 6h3v28h-3z"/>
        <path fill="#7FEAE7" fill-rule="nonzero" d="M5 25h52a3 3 0 0 1 3 3v8a3 3 0 0 1-3 3H5a3 3 0 0 1-3-3v-8a3 3 0 0 1 3-3z"/>
        <path fill="#57D3CF" fill-rule="nonzero" d="M47.892 25H58a3 3 0 0 1 3 3v8a3 3 0 0 1-3 3H24l22.335-13.564A3 3 0 0 1 47.892 25z"/>
        <rect width="61" height="3" x="1" y="25" fill="#38CCC8" fill-rule="nonzero" rx="1.5"/>
        <g fill-rule="nonzero" transform="translate(36 31)">
            <ellipse cx="9" cy="8.167" fill="#38CCC8" rx="5.714" ry="5.833"/>
            <path fill="#5DE8E5" d="M13.755 5.052c-1.578-2.79-5.073-3.746-7.806-2.135-2.733 1.61-3.67 5.178-2.092 7.968l9.898-5.833z"/>
            <path fill="#A4FAF7" d="M17 8.167c0 .644-.512 1.166-1.143 1.166a1.155 1.155 0 0 1-1.143-1.166H3.286c0 .644-.512 1.166-1.143 1.166A1.155 1.155 0 0 1 1 8.167C1 3.657 4.582 0 9 0s8 3.656 8 8.167zm-2.286 0c0-3.222-2.558-5.834-5.714-5.834-3.156 0-5.714 2.612-5.714 5.834h11.428z"/>
            <path fill="#DBF9F8" d="M9 0c.631 0 1.143.522 1.143 1.167 0 .644-.512 1.166-1.143 1.166-3.156 0-5.714 2.612-5.714 5.834 0 .644-.512 1.166-1.143 1.166A1.155 1.155 0 0 1 1 8.167C1 3.657 4.582 0 9 0z"/>
            <ellipse cx="9" cy="8.167" fill="#DBF9F8" rx="2.286" ry="2.333"/>
        </g>
        <g fill-rule="nonzero" transform="translate(8 31)">
            <ellipse cx="9" cy="8.167" fill="#38CCC8" rx="5.714" ry="5.833"/>
            <path fill="#5DE8E5" d="M13.755 5.052c-1.578-2.79-5.073-3.746-7.806-2.135-2.733 1.61-3.67 5.178-2.092 7.968l9.898-5.833z"/>
            <path fill="#A4FAF7" d="M17 8.167c0 .644-.512 1.166-1.143 1.166a1.155 1.155 0 0 1-1.143-1.166H3.286c0 .644-.512 1.166-1.143 1.166A1.155 1.155 0 0 1 1 8.167C1 3.657 4.582 0 9 0s8 3.656 8 8.167zm-2.286 0c0-3.222-2.558-5.834-5.714-5.834-3.156 0-5.714 2.612-5.714 5.834h11.428z"/>
            <path fill="#DBF9F8" d="M9 0c.631 0 1.143.522 1.143 1.167 0 .644-.512 1.166-1.143 1.166-3.156 0-5.714 2.612-5.714 5.834 0 .644-.512 1.166-1.143 1.166A1.155 1.155 0 0 1 1 8.167C1 3.657 4.582 0 9 0z"/>
            <ellipse cx="9" cy="8.167" fill="#DBF9F8" rx="2.286" ry="2.333"/>
        </g>
        <path fill="#0D9F9B" fill-rule="nonzero" d="M2 28h59v2H2z"/>
        <path fill="#5DE8E5" fill-rule="nonzero" d="M27 3h8l.82 9.834A2 2 0 0 1 33.825 15h-5.652a2 2 0 0 1-1.993-2.166L27 3z"/>
        <path fill="#A4FAF7" fill-rule="nonzero" d="M35 3h8l1.612 9.671A2 2 0 0 1 42.639 15H37a2 2 0 0 1-2-2V3z"/>
        <path fill="#5DE8E5" fill-rule="nonzero" d="M43 3h8l2.379 9.515A2 2 0 0 1 51.439 15H45.84a2 2 0 0 1-1.993-1.834L43 3z"/>
        <path fill="#A4FAF7" fill-rule="nonzero" d="M51 3h8l3.123 9.368A2 2 0 0 1 60.225 15h-5.53a2 2 0 0 1-1.974-1.671L51 3zM19.64 3h8v10a2 2 0 0 1-2 2H20a2 2 0 0 1-1.973-2.329L19.64 3z"/>
        <path fill="#5DE8E5" fill-rule="nonzero" d="M11.228 3h8.558l-1.148 10.223A2 2 0 0 1 16.65 15h-5.693a2 2 0 0 1-1.948-2.453L11.229 3z"/>
        <path fill="#A4FAF7" fill-rule="nonzero" d="M3.225 3h8.167l-1.87 10.355A2 2 0 0 1 7.554 15H2a2 2 0 0 1-1.897-2.632L3.225 3z"/>
        <rect width="58" height="3" x="2" fill="#DBF9F8" fill-rule="nonzero" rx="1"/>
        <rect width="14" height="3" x="11" y="22" fill="#DBF9F8" fill-rule="nonzero" rx="1"/>
        <rect width="14" height="3" x="15" y="20" fill="#A4FAF7" fill-rule="nonzero" rx="1"/>
        <rect width="14" height="3" x="21" y="22" fill="#5DE8E5" fill-rule="nonzero" rx="1"/>
        <rect width="7" height="3" x="45" y="22" fill="#5DE8E5" fill-rule="nonzero" rx="1"/>
        <rect width="7" height="3" x="40" y="22" fill="#DBF9F8" fill-rule="nonzero" rx="1"/>
        <rect width="7" height="3" x="42" y="20" fill="#A4FAF7" fill-rule="nonzero" rx="1"/>
    </g>
</svg>
