<svg xmlns="http://www.w3.org/2000/svg" width="64" height="45" viewBox="0 0 64 45">
    <g fill="none" fill-rule="nonzero">
        <path fill="#FFBA2B" d="M3 11h58v26H3z"/>
        <path fill="#FFF89C" d="M5 31h54a3 3 0 0 1 3 3v8a3 3 0 0 1-3 3H5a3 3 0 0 1-3-3v-8a3 3 0 0 1 3-3z"/>
        <path fill="#FFE272" d="M62 35.987V42a3 3 0 0 1-3 3H29l28.866-11.79A3 3 0 0 1 62 35.987z"/>
        <path fill="#FEFFBF" d="M3 13h3v21H3zM58 13h3v21h-3z"/>
        <path fill="#FFE272" d="M2 34h60v3H2z"/>
        <rect width="52" height="3" x="6" fill="#FEFFBF" rx="1"/>
        <path fill="#FFE272" d="M32 19a5 5 0 0 0 5-5H27a5 5 0 0 0 5 5z"/>
        <path fill="#FFF89C" d="M23 19a5 5 0 0 0 5-5H18a5 5 0 0 0 5 5zM41 19a5 5 0 0 0 5-5H36a5 5 0 0 0 5 5z"/>
        <path fill="#FFE272" d="M50 19a5 5 0 0 0 5-5H45a5 5 0 0 0 5 5z"/>
        <path fill="#FFF89C" d="M59 19a5 5 0 0 0 5-5H54a5 5 0 0 0 5 5zM28 3h8l1 11H27z"/>
        <path fill="#FFF" d="M35 3h8l3 11H36z"/>
        <path fill="#FFF89C" d="M42 3h8l5 11H45z"/>
        <path fill="#FFF" d="M49 3h8l7 11H54zM21 3h8l-1 11H18z"/>
        <rect width="17" height="6" x="9" y="26" fill="#FFE272" rx="1"/>
        <rect width="12" height="8" x="27" y="24" fill="#FFF89C" rx="1"/>
        <path fill="#FFF" d="M37.047 24H38a1 1 0 0 1 1 1v6a1 1 0 0 1-1 1H27.273l9.126-7.762a1 1 0 0 1 .648-.238z"/>
        <rect width="17" height="5" x="40" y="27" fill="#FFF" rx="1"/>
        <path fill="#FFF89C" d="M54.908 27H56a1 1 0 0 1 1 1v3a1 1 0 0 1-1 1h-7.987l6.29-4.795a1 1 0 0 1 .605-.205z"/>
        <rect width="62" height="3" x="1" y="31" fill="#FFF" rx="1.5"/>
        <path fill="#FFE272" d="M14 19a5 5 0 0 0 5-5H9a5 5 0 0 0 5 5z"/>
        <path fill="#FFF89C" d="M14 3h8l-3 11H9zM5 19a5 5 0 0 0 5-5H0a5 5 0 0 0 5 5z"/>
        <path fill="#FFF" d="M7 3h8l-5 11H0z"/>
    </g>
</svg>
