<svg xmlns="http://www.w3.org/2000/svg" width="64" height="45" viewBox="0 0 64 45">
    <g fill="none" fill-rule="evenodd">
        <path fill="#0A789D" fill-rule="nonzero" d="M22.735 26.67c-4.863 1.124-13.177-2.255-11.52-7.34.458-1.407 1.484-2.209 3.077-2.404-.6-1.41-1.593-5.86 4.223-5.86.478-5.086 8.46-7.969 11.436-.636 2.049-.636 6.32 2.058 3.57 5.713 5.688 5.188 1.06 10.07-10.786 10.528z"/>
        <path stroke="#1488B0" stroke-linecap="round" stroke-linejoin="round" stroke-width="2" d="M5 24.125V9c0-4.418 3.454-8 7.714-8h38.572C55.546 1 59 4.582 59 9v15.125"/>
        <path fill="#2A9FC7" fill-rule="nonzero" d="M2 29h60l-2.388 12.737A4 4 0 0 1 55.68 45H8.32a4 4 0 0 1-3.932-3.263L2 29z"/>
        <path fill="#1488B0" fill-rule="nonzero" d="M62 29l-2.388 12.737A4 4 0 0 1 55.68 45H19l43-16zM46.128 23.255c-3.985 3.005-12.955 3.3-13.51-2.02-.154-1.472.458-2.621 1.834-3.448-1.123-1.044-3.84-4.705 1.473-7.071-1.63-4.84 4.49-10.72 10.19-5.232 1.613-1.414 6.61-.69 5.585 3.767 7.306 2.426 5.065 8.768-5.572 14.004z"/>
        <path fill="#0A789D" fill-rule="nonzero" d="M61.438 32H2.562L2 29h60l-.563 3z"/>
        <path fill="#75DAFC" fill-rule="nonzero" d="M46.639 26.218c-4.261-1.138-9.098-7.498-5.476-11.026 1.002-.976 2.161-1.206 3.477-.69.19-1.43 1.48-5.56 5.955-3.079 2.715-4.03 10.188-3.026 9.093 4.349 1.87.344 3.912 4.408.11 6.28 1.98 6.746-3.833 8.838-13.16 4.166z"/>
        <path stroke="#47B7DD" stroke-linecap="round" stroke-linejoin="round" stroke-width="1.2" d="M45.75 28.981c2.513-8.002 5.727-13.323 9.641-15.965M49.459 20.289c1.969-1.599 4.206-2.218 6.713-1.858M46.52 26.515c1.882-4.035 4.543-5.397 7.984-4.086M48.398 21.98c.427-2.293.115-4.122-.938-5.487"/>
        <rect width="64" height="6" y="24" fill="#2A9FC7" fill-rule="nonzero" rx="2"/>
        <path fill="#2A9FC7" fill-rule="nonzero" d="M22.104 26.362a6.104 6.104 0 0 0 4.316-10.42c-2.049-2.05-3.488-1.108-4.316-1.108-.827 0-2.267-.942-4.316 1.108a6.104 6.104 0 0 0 4.316 10.42z"/>
        <rect width="6" height="2" x="8" y="36" fill="#75DAFC" fill-rule="nonzero" rx="1"/>
        <path fill="#75DAFC" fill-rule="nonzero" d="M32.104 28.744a6.104 6.104 0 0 0 4.316-10.42c-2.049-2.05-3.488-1.108-4.316-1.108-.827 0-2.267-.942-4.316 1.108a6.104 6.104 0 0 0 4.316 10.42z"/>
        <rect width="6" height="2" x="16" y="36" fill="#75DAFC" fill-rule="nonzero" rx="1"/>
        <g fill-rule="nonzero">
            <path fill="#75DAFC" d="M5.445 14.753a4.902 4.902 0 0 0-2.098-2.366 4.902 4.902 0 0 0-3.098-.634 4.902 4.902 0 0 0 2.098 2.366c.957.553 1.99.764 3.098.634z"/>
            <path fill="#75DAFC" d="M5.872 14.548a4.902 4.902 0 0 0-.634-3.098 4.902 4.902 0 0 0-2.366-2.098 4.902 4.902 0 0 0 .634 3.098 4.902 4.902 0 0 0 2.366 2.098z"/>
            <path fill="#76D7F7" d="M4.738 14.056l.364-.364a4 4 0 0 1 6.103.531l9.301 13.258c.458.652.38 1.54-.183 2.103-.56.56-1.446.627-2.084.156L5.19 20.102a4 4 0 0 1-.452-6.046z"/>
        </g>
        <rect width="9" height="2" x="10" y="39" fill="#75DAFC" fill-rule="nonzero" rx="1"/>
        <rect width="7" height="2" x="21" y="39" fill="#75DAFC" fill-rule="nonzero" rx="1"/>
        <rect width="7" height="2" x="48" y="39" fill="#75DAFC" fill-rule="nonzero" rx="1"/>
        <path fill="#75DAFC" fill-rule="nonzero" d="M22.243 14.326c-1.407.154-2.497-.164-3.271-.953-.775-.79-1.086-1.901-.935-3.335 1.406-.154 2.497.163 3.271.953.774.79 1.086 1.9.935 3.335zM32.038 16.243c-.154-1.407.163-2.497.953-3.271.79-.775 1.9-1.086 3.335-.935.154 1.406-.164 2.497-.953 3.271-.79.774-1.901 1.086-3.335.935z"/>
        <g fill="#2A9FC7" transform="translate(0 24)">
            <rect width="64" height="6" fill-rule="nonzero" rx="2"/>
        </g>
        <path fill="#47B7DD" fill-rule="nonzero" d="M2 24h60a2 2 0 0 1 1.912 1.411A1 1 0 0 1 63 26H1a1 1 0 0 1-.912-.589A2 2 0 0 1 2 24z"/>
    </g>
</svg>
