<svg xmlns="http://www.w3.org/2000/svg" width="64" height="45" viewBox="0 0 64 45">
    <g fill="none" fill-rule="evenodd">
        <path fill="#DBF9F8" fill-rule="nonzero" d="M7 8h51v23H7z"/>
        <path fill="#027F7C" fill-rule="nonzero" d="M5 6h3v28H5zM56 6h3v28h-3z"/>
        <path fill="#0D9F9B" fill-rule="nonzero" d="M6 25h52a3 3 0 0 1 3 3v8a3 3 0 0 1-3 3H6a3 3 0 0 1-3-3v-8a3 3 0 0 1 3-3z"/>
        <path fill="#059591" fill-rule="nonzero" d="M48.892 25H59a3 3 0 0 1 3 3v8a3 3 0 0 1-3 3H25l22.335-13.564A3 3 0 0 1 48.892 25z"/>
        <rect width="61" height="3" x="2" y="25" fill="#38CCC8" fill-rule="nonzero" rx="1.5"/>
        <g fill-rule="nonzero" transform="translate(37 31)">
            <ellipse cx="9" cy="8.167" fill="#027F7C" rx="5.714" ry="5.833"/>
            <path fill="#0D9F9B" d="M13.755 5.052c-1.578-2.79-5.073-3.746-7.806-2.135-2.733 1.61-3.67 5.178-2.092 7.968l9.898-5.833z"/>
            <path fill="#38CCC8" d="M17 8.167c0 .644-.512 1.166-1.143 1.166a1.155 1.155 0 0 1-1.143-1.166H3.286c0 .644-.512 1.166-1.143 1.166A1.155 1.155 0 0 1 1 8.167C1 3.657 4.582 0 9 0s8 3.656 8 8.167zm-2.286 0c0-3.222-2.558-5.834-5.714-5.834-3.156 0-5.714 2.612-5.714 5.834h11.428z"/>
            <path fill="#5DE8E5" d="M9 0c.631 0 1.143.522 1.143 1.167 0 .644-.512 1.166-1.143 1.166-3.156 0-5.714 2.612-5.714 5.834 0 .644-.512 1.166-1.143 1.166A1.155 1.155 0 0 1 1 8.167C1 3.657 4.582 0 9 0z"/>
            <ellipse cx="9" cy="8.167" fill="#38CCC8" rx="2.286" ry="2.333"/>
        </g>
        <g fill-rule="nonzero" transform="translate(9 31)">
            <ellipse cx="9" cy="8.167" fill="#027F7C" rx="5.714" ry="5.833"/>
            <path fill="#0D9F9B" d="M13.755 5.052c-1.578-2.79-5.073-3.746-7.806-2.135-2.733 1.61-3.67 5.178-2.092 7.968l9.898-5.833z"/>
            <path fill="#38CCC8" d="M17 8.167c0 .644-.512 1.166-1.143 1.166a1.155 1.155 0 0 1-1.143-1.166H3.286c0 .644-.512 1.166-1.143 1.166A1.155 1.155 0 0 1 1 8.167C1 3.657 4.582 0 9 0s8 3.656 8 8.167zm-2.286 0c0-3.222-2.558-5.834-5.714-5.834-3.156 0-5.714 2.612-5.714 5.834h11.428z"/>
            <path fill="#5DE8E5" d="M9 0c.631 0 1.143.522 1.143 1.167 0 .644-.512 1.166-1.143 1.166-3.156 0-5.714 2.612-5.714 5.834 0 .644-.512 1.166-1.143 1.166A1.155 1.155 0 0 1 1 8.167C1 3.657 4.582 0 9 0z"/>
            <ellipse cx="9" cy="8.167" fill="#38CCC8" rx="2.286" ry="2.333"/>
        </g>
        <path fill="#027F7C" fill-rule="nonzero" d="M3 28h59v2H3z"/>
        <path fill="#0D9F9B" fill-rule="nonzero" d="M28 3h8l.82 9.834A2 2 0 0 1 34.825 15h-5.652a2 2 0 0 1-1.993-2.166L28 3z"/>
        <path fill="#38CCC8" fill-rule="nonzero" d="M36 3h8l1.612 9.671A2 2 0 0 1 43.639 15H38a2 2 0 0 1-2-2V3z"/>
        <path fill="#0D9F9B" fill-rule="nonzero" d="M44 3h8l2.379 9.515A2 2 0 0 1 52.439 15H46.84a2 2 0 0 1-1.993-1.834L44 3z"/>
        <path fill="#38CCC8" fill-rule="nonzero" d="M52 3h8l3.123 9.368A2 2 0 0 1 61.225 15h-5.53a2 2 0 0 1-1.974-1.671L52 3zM20.64 3h8v10a2 2 0 0 1-2 2H21a2 2 0 0 1-1.973-2.329L20.64 3z"/>
        <path fill="#0D9F9B" fill-rule="nonzero" d="M12.228 3h8.558l-1.148 10.223A2 2 0 0 1 17.65 15h-5.693a2 2 0 0 1-1.948-2.453L12.229 3z"/>
        <path fill="#38CCC8" fill-rule="nonzero" d="M4.225 3h8.167l-1.87 10.355A2 2 0 0 1 8.554 15H3a2 2 0 0 1-1.897-2.632L4.225 3z"/>
        <rect width="58" height="3" x="3" fill="#5DE8E5" fill-rule="nonzero" rx="1"/>
        <rect width="14" height="3" x="12" y="22" fill="#027F7C" fill-rule="nonzero" rx="1"/>
        <rect width="14" height="3" x="16" y="20" fill="#38CCC8" fill-rule="nonzero" rx="1"/>
        <rect width="14" height="3" x="22" y="22" fill="#0D9F9B" fill-rule="nonzero" rx="1"/>
        <rect width="7" height="3" x="46" y="22" fill="#0D9F9B" fill-rule="nonzero" rx="1"/>
        <rect width="7" height="3" x="41" y="22" fill="#027F7C" fill-rule="nonzero" rx="1"/>
        <rect width="7" height="3" x="43" y="20" fill="#38CCC8" fill-rule="nonzero" rx="1"/>
    </g>
</svg>
